<svg xmlns="http://www.w3.org/2000/svg" xmlns:xlink="http://www.w3.org/1999/xlink" width="0" height="0" style="position:absolute">
	
		<symbol id="alert-attention" viewBox="0 0 286.054 286.054">
			<path d="M143.027 0C64.04 0 0 64.04 0 143.027c0 78.996 64.04 143.027 143.027 143.027 78.996 0 143.027-64.022 143.027-143.027C286.054 64.04 222.022 0 143.027 0zm0 259.236c-64.183 0-116.209-52.026-116.209-116.209S78.844 26.818 143.027 26.818s116.209 52.026 116.209 116.209-52.026 116.209-116.209 116.209zm.009-196.51c-10.244 0-17.995 5.346-17.995 13.981v79.201c0 8.644 7.75 13.972 17.995 13.972 9.994 0 17.995-5.551 17.995-13.972V76.707c-.001-8.43-8.001-13.981-17.995-13.981zm0 124.997c-9.842 0-17.852 8.01-17.852 17.86 0 9.833 8.01 17.843 17.852 17.843s17.843-8.01 17.843-17.843c-.001-9.851-8.001-17.86-17.843-17.86z" fill="#ffe03f"></path>
		</symbol>
	
		<symbol id="alert-info" viewBox="0 0 330 330">
			<g fill="#e5e5e5"><path d="M165 0C74.019 0 0 74.02 0 165.001 0 255.982 74.019 330 165 330s165-74.018 165-164.999S255.981 0 165 0zm0 300c-74.44 0-135-60.56-135-134.999S90.56 30 165 30s135 60.562 135 135.001C300 239.44 239.439 300 165 300z"></path><path d="M164.998 70c-11.026 0-19.996 8.976-19.996 20.009 0 11.023 8.97 19.991 19.996 19.991 11.026 0 19.996-8.968 19.996-19.991 0-11.033-8.97-20.009-19.996-20.009zM165 140c-8.284 0-15 6.716-15 15v90c0 8.284 6.716 15 15 15 8.284 0 15-6.716 15-15v-90c0-8.284-6.716-15-15-15z"></path></g>
		</symbol>
	
		<symbol id="alert-invalid" viewBox="0 0 286.054 286.054">
			<path d="M168.352 142.924l25.28-25.28c3.495-3.504 3.495-9.154 0-12.64l-12.64-12.649c-3.495-3.486-9.145-3.495-12.64 0l-25.289 25.289-25.271-25.271c-3.504-3.504-9.163-3.504-12.658-.018l-12.64 12.649c-3.495 3.486-3.486 9.154.018 12.649l25.271 25.271-25.227 25.226a8.93 8.93 0 0 0 0 12.64l12.64 12.649c3.495 3.486 9.145 3.495 12.64 0l25.226-25.226 25.405 25.414c3.504 3.504 9.163 3.504 12.658.009l12.64-12.64c3.495-3.495 3.486-9.154-.009-12.658l-25.404-25.414zM143.027.004C64.031.004 0 64.036 0 143.022c0 78.996 64.031 143.027 143.027 143.027s143.027-64.031 143.027-143.027C286.054 64.045 222.022.004 143.027.004zm0 259.228c-64.183 0-116.209-52.026-116.209-116.209s52.026-116.21 116.209-116.21 116.209 52.026 116.209 116.209-52.026 116.21-116.209 116.21z" fill="#e2574c"></path>
		</symbol>
	
		<symbol id="alert-valid" viewBox="0 0 286.054 286.054">
			<path d="M143.031 0C64.027 0 .004 64.04.004 143.027c0 78.996 64.031 143.027 143.027 143.027 78.987 0 143.018-64.031 143.018-143.027C286.049 64.049 222.018 0 143.031 0zm0 259.236c-64.183 0-116.209-52.026-116.209-116.209S78.857 26.818 143.031 26.818s116.2 52.026 116.2 116.209-52.025 116.209-116.2 116.209zm56.21-177.049c-6.079-3.629-13.847-1.475-17.342 4.827l-47.959 86.147-26.71-32.512c-4.836-5.569-11.263-8.456-17.333-4.827-6.079 3.638-8.591 12.39-4.657 18.004l37.169 45.241c2.78 3.611 5.953 5.775 9.27 6.392l.027.054.34.018c.751.116 11.979 2.19 16.815-6.463l55.048-98.876c3.493-6.313 1.411-14.367-4.668-18.005z" fill="#3db39e"></path>
		</symbol>
	
		<symbol id="arrow-left" viewBox="0 0 49.656 49.656">
			<path d="M35.121 1.414l2.828 2.828-20.585 20.586 20.585 20.586-2.828 2.828-23.414-23.414z"></path><path d="M35.122 49.656l-24.83-24.828L35.121 0l4.242 4.242-20.585 20.586 20.586 20.586-4.242 4.242zM13.121 24.828l22.001 22 1.414-1.414L15.95 24.828 36.535 4.242l-1.414-1.414-22 22z"></path>
		</symbol>
	
		<symbol id="arrow-right" viewBox="0 0 49.656 49.656">
			<path d="M14.535 48.242l-2.828-2.828 20.585-20.586L11.707 4.242l2.828-2.828 23.414 23.414z"></path><path d="M14.535 49.656l-4.242-4.242 20.585-20.586L10.293 4.242 14.535 0l24.829 24.828-24.829 24.828zm-1.414-4.242l1.414 1.414 22-22-22-22-1.414 1.414 20.585 20.586-20.585 20.586z"></path>
		</symbol>
	
		<symbol id="close" viewBox="0 0 60 60">
			<title>Монтажная область 2 копия 14</title><path d="M27.55 30.33L4.89 53A1.61 1.61 0 0 0 6 55.74a1.64 1.64 0 0 0 1.14-.47L30 32.44l22.83 22.83a1.64 1.64 0 0 0 1.14.47A1.61 1.61 0 0 0 55.11 53L32.45 30.33 55.13 7.65a1.61 1.61 0 1 0-2.28-2.28L30 28.22 7.15 5.37a1.61 1.61 0 1 0-2.28 2.28zm0 0"></path>
		</symbol>
	
		<symbol id="footer-fb" viewBox="0 0 27 26">
			<path d="M13.592.25C6.5.25.75 6 .75 13.092c0 7.093 5.75 12.842 12.842 12.842 7.093 0 12.842-5.75 12.842-12.842C26.434 6 20.684.25 13.592.25zm4.9 6.54h-1.777c-1.393 0-1.662.663-1.662 1.634v2.141h3.322l-.002 3.354h-3.32v8.608H11.59v-8.608H8.693v-3.354h2.896V8.092c0-2.87 1.754-4.434 4.314-4.434l2.589.004V6.79z" fill="#fff"></path>
		</symbol>
	
		<symbol id="footer-insta" viewBox="0 0 26 26">
			<path d="M15 13a2 2 0 1 1-4 0 2 2 0 0 1 4 0z" fill="#fff"></path><path d="M18.705 8.684a2.268 2.268 0 0 0-.547-.842 2.266 2.266 0 0 0-.842-.547c-.258-.1-.645-.22-1.358-.252C15.186 7.008 14.954 7 13 7c-1.954 0-2.186.007-2.957.043-.714.032-1.102.151-1.36.252a2.264 2.264 0 0 0-.84.547c-.244.236-.43.524-.548.842-.1.257-.22.645-.252 1.359C7.008 10.814 7 11.046 7 13s.008 2.186.043 2.958c.032.713.151 1.1.252 1.358.117.318.304.606.547.842.236.243.524.43.842.547.257.1.645.22 1.359.252.771.036 1.003.043 2.957.043s2.186-.007 2.957-.043c.714-.032 1.101-.151 1.36-.252a2.424 2.424 0 0 0 1.388-1.389c.1-.258.22-.645.252-1.358.036-.772.043-1.004.043-2.958 0-1.954-.007-2.186-.043-2.957-.032-.714-.151-1.102-.252-1.36zM13 16.758a3.758 3.758 0 1 1 0-7.516 3.758 3.758 0 0 1 0 7.516zm3.907-6.787a.878.878 0 1 1 0-1.756.878.878 0 0 1 0 1.756z" fill="#fff"></path><path d="M13 0C5.821 0 0 5.821 0 13s5.821 13 13 13 13-5.821 13-13S20.179 0 13 0zm7.42 16.078c-.036.794-.163 1.337-.347 1.812a3.817 3.817 0 0 1-2.183 2.183c-.475.184-1.018.31-1.812.347-.796.036-1.05.045-3.078.045-2.027 0-2.281-.009-3.078-.045-.794-.037-1.337-.163-1.811-.347a3.659 3.659 0 0 1-1.323-.861 3.658 3.658 0 0 1-.86-1.322c-.185-.475-.312-1.018-.348-1.812-.036-.796-.045-1.05-.045-3.078 0-2.027.009-2.282.045-3.078.036-.794.162-1.337.347-1.812.187-.498.481-.949.861-1.322.373-.38.824-.673 1.322-.86.475-.185 1.018-.312 1.812-.348.796-.036 1.05-.045 3.078-.045 2.027 0 2.282.009 3.078.045.794.036 1.337.163 1.812.347.498.187.95.481 1.322.861.38.373.674.824.86 1.322.186.475.312 1.018.348 1.812.036.796.045 1.05.045 3.078 0 2.027-.009 2.282-.045 3.078z" fill="#fff"></path>
		</symbol>
	
		<symbol id="footer-vk" viewBox="0 0 26 26">
			<path d="M12.842.25C5.75.25 0 6 0 13.092c0 7.093 5.75 12.842 12.842 12.842 7.092 0 12.842-5.75 12.842-12.842C25.684 6 19.934.25 12.842.25zm6.514 14.231c.599.585 1.232 1.135 1.77 1.78.238.285.462.58.633.912.244.474.023.992-.4 1.02h-2.631c-.68.056-1.22-.218-1.676-.682-.364-.37-.702-.766-1.052-1.149a2.459 2.459 0 0 0-.474-.421c-.359-.234-.67-.162-.876.213-.21.38-.257.803-.277 1.228-.029.62-.216.782-.838.811-1.33.063-2.592-.14-3.765-.81-1.035-.591-1.836-1.426-2.534-2.371-1.359-1.843-2.4-3.865-3.335-5.945-.21-.468-.056-.72.46-.729a73.203 73.203 0 0 1 2.577 0c.35.005.58.205.715.535a15.987 15.987 0 0 0 1.745 3.235c.19.268.384.536.66.725.305.21.538.14.681-.2.092-.216.132-.448.152-.68.068-.793.076-1.587-.042-2.377-.073-.495-.352-.815-.845-.908-.251-.048-.214-.14-.092-.284.212-.248.41-.402.808-.402h2.972c.469.092.574.302.637.774l.003 3.303c-.006.183.092.724.42.844.262.086.436-.124.593-.29.713-.757 1.22-1.65 1.675-2.574.201-.408.374-.83.543-1.252.125-.312.32-.466.672-.46l2.862.003c.084 0 .17 0 .254.015.482.082.614.29.465.76-.235.74-.691 1.356-1.137 1.973-.479.662-.989 1.3-1.462 1.963-.435.607-.4.913.14 1.44z" fill="#fff"></path>
		</symbol>
	
		<symbol id="footer-youtube" viewBox="0 0 27 26">
			<path d="M7.247 14.04h1.018v5.51h.963v-5.51h1.037v-.902H7.247v.902zM15.391 14.714c-.318 0-.615.174-.895.518v-2.095h-.865v6.414h.865v-.463c.29.357.587.529.895.529.345 0 .577-.182.692-.537.058-.203.088-.521.088-.963v-1.903c0-.453-.03-.768-.088-.96-.115-.359-.347-.54-.692-.54zm-.086 3.47c0 .432-.127.645-.377.645-.142 0-.287-.068-.432-.213v-2.912c.145-.143.29-.211.432-.211.25 0 .377.221.377.652v2.04zM12.015 18.424c-.192.271-.374.405-.548.405-.115 0-.181-.068-.202-.202-.008-.028-.008-.134-.008-.337v-3.518h-.866v3.778c0 .338.03.566.076.71.087.243.28.357.558.357.319 0 .646-.193.99-.587v.521h.867v-4.779h-.867v3.652zM12.758 10.357c.282 0 .418-.224.418-.67V7.655c0-.447-.136-.67-.418-.67s-.417.224-.417.67v2.032c0 .447.135.67.417.67z" fill="#fff"></path><path d="M13.342.25C6.25.25.5 6 .5 13.092c0 7.093 5.75 12.842 12.842 12.842 7.093 0 12.842-5.75 12.842-12.842C26.184 6 20.434.25 13.342.25zm1.428 6.007h.873v3.555c0 .205 0 .312.01.34.02.136.089.205.206.205.175 0 .359-.135.553-.41v-3.69h.875v4.829h-.875v-.527c-.349.4-.68.593-1 .593-.282 0-.476-.114-.564-.358-.048-.147-.078-.378-.078-.719V6.258zM11.466 7.83c0-.516.087-.893.273-1.137.242-.33.583-.496 1.02-.496.438 0 .778.165 1.02.496.184.243.271.621.271 1.137v1.691c0 .514-.088.894-.27 1.136-.243.33-.583.494-1.022.494-.436 0-.777-.164-1.019-.494-.186-.242-.273-.622-.273-1.136v-1.69zm-2.34-3.226l.688 2.545.662-2.545h.982L10.29 8.461v2.625h-.97V8.461c-.088-.465-.282-1.146-.593-2.05-.205-.601-.418-1.205-.622-1.806h1.02zm11.13 15.368a1.81 1.81 0 0 1-1.55 1.408c-1.776.198-3.574.199-5.365.198-1.79 0-3.588 0-5.365-.198a1.81 1.81 0 0 1-1.548-1.408c-.25-1.085-.25-2.27-.25-3.387s.003-2.302.253-3.387a1.809 1.809 0 0 1 1.548-1.408c1.777-.198 3.575-.2 5.365-.198 1.79-.001 3.589 0 5.366.198a1.81 1.81 0 0 1 1.549 1.408c.249 1.085.247 2.27.247 3.387s0 2.302-.25 3.387z" fill="#fff"></path><path d="M18.15 14.714c-.444 0-.788.162-1.038.49-.183.241-.267.615-.267 1.125v1.674c0 .508.094.884.278 1.124.25.326.595.49 1.048.49.452 0 .807-.172 1.047-.519.105-.153.173-.327.202-.519a6.72 6.72 0 0 0 .018-.558v-.126h-.883c0 .347-.011.54-.019.587-.049.231-.174.347-.387.347-.297 0-.443-.22-.443-.663v-.847h1.732v-.99c0-.51-.086-.884-.268-1.126-.242-.326-.586-.49-1.02-.49zm.423 1.884h-.866v-.442c0-.442.145-.663.434-.663.287 0 .432.221.432.663v.442z" fill="#fff"></path>
		</symbol>
	
		<symbol id="insta" viewBox="0 0 18 18">
			<path d="M13.127 0H4.872A4.878 4.878 0 0 0 0 4.872v8.256A4.878 4.878 0 0 0 4.872 18h8.256A4.878 4.878 0 0 0 18 13.128V4.872A4.878 4.878 0 0 0 13.127 0zM9 13.922A4.927 4.927 0 0 1 4.078 9 4.927 4.927 0 0 1 9 4.078 4.927 4.927 0 0 1 13.922 9 4.927 4.927 0 0 1 9 13.922zm5.04-8.683a1.456 1.456 0 0 1-1.455-1.454c0-.802.652-1.455 1.454-1.455.802 0 1.455.653 1.455 1.455s-.653 1.454-1.455 1.454z"></path><path d="M9 5.133A3.87 3.87 0 0 0 5.134 9 3.871 3.871 0 0 0 9 12.867 3.87 3.87 0 0 0 12.867 9 3.87 3.87 0 0 0 9 5.133zM14.04 3.386a.4.4 0 1 0 0 .799.4.4 0 0 0 0-.8z"></path>
		</symbol>
	
		<symbol id="lines-1" viewBox="0 0 51 5">
			<rect width="33" height="5" rx="2.5" fill="#353634"></rect><rect x="39" width="12" height="5" rx="2.5" fill="#353634"></rect>
		</symbol>
	
		<symbol id="lines-2" viewBox="0 0 51 5">
			<rect width="33" height="5" rx="2.5" transform="matrix(-1 0 0 1 51 0)" fill="#353634"></rect><rect width="12" height="5" rx="2.5" transform="matrix(-1 0 0 1 12 0)" fill="#353634"></rect>
		</symbol>
	
		<symbol id="m-home" viewBox="0 0 54 47">
			<path d="M51.374 15.393L27 0 2.626 15.394c-2.49 1.46-3.364 4.679-1.947 7.19a5.305 5.305 0 0 0 3.253 2.528 5.319 5.319 0 0 0 3.866-.411V47h38.403V24.703a5.326 5.326 0 0 0 3.865.409 5.302 5.302 0 0 0 3.253-2.526c1.42-2.512.547-5.731-1.945-7.193zM31.21 43.85h-8.42V30.22h8.42V43.85zm3.165 0V27.07h-14.75v16.778h-8.662V22.697L27 12.404l16.036 10.292V43.85h-8.662zm16.186-22.808c-.288.51-.76.876-1.327 1.03a2.174 2.174 0 0 1-1.642-.201L27.001 8.656 6.407 21.872a2.173 2.173 0 0 1-1.642.201 2.163 2.163 0 0 1-1.327-1.031 2.175 2.175 0 0 1 .807-2.94l.026-.016L27.001 3.73l22.701 14.337.053.032a2.174 2.174 0 0 1 .806 2.942z"></path>
		</symbol>
	
		<symbol id="m-info" viewBox="0 0 47 47">
			<path d="M23.5 0C10.51 0 0 10.511 0 23.5 0 36.49 10.511 47 23.5 47 36.49 47 47 36.489 47 23.5 47 10.51 36.489 0 23.5 0zm0 43.328c-10.96 0-19.828-8.869-19.828-19.828 0-10.96 8.869-19.828 19.828-19.828 10.96 0 19.828 8.869 19.828 19.828 0 10.96-8.869 19.828-19.828 19.828z"></path><path d="M23.5 11.83a1.836 1.836 0 0 0-1.836 1.836V25.49a1.836 1.836 0 1 0 3.672 0V13.666a1.836 1.836 0 0 0-1.836-1.835zM23.5 34.53a2.479 2.479 0 1 0 0-4.957 2.479 2.479 0 0 0 0 4.957z"></path>
		</symbol>
	
		<symbol id="m-insta" viewBox="0 0 44 44">
			<path d="M22.434 44h-.438a152.92 152.92 0 0 1-9.735-.269c-2.842-.172-5.435-1.154-7.501-2.839C2.766 39.267 1.405 37.07.714 34.36.112 32.004.08 29.689.05 27.45.028 25.842.005 23.94 0 22.003c.005-1.944.028-3.847.05-5.453.03-2.239.062-4.553.664-6.912.69-2.708 2.052-4.906 4.046-6.531C6.826 1.423 9.42.44 12.26.268c3.1-.188 6.287-.276 9.743-.267 3.45-.008 6.636.08 9.735.267 2.842.173 5.435 1.155 7.501 2.84 1.994 1.625 3.355 3.823 4.046 6.531.602 2.358.634 4.673.664 6.912.022 1.606.046 3.51.05 5.445a473.927 473.927 0 0 1-.05 5.453 1.72 1.72 0 0 1-3.437-.047c.022-1.597.045-3.488.05-5.406-.005-1.91-.028-3.801-.05-5.398-.028-2.038-.057-4.146-.558-6.109-.505-1.98-1.476-3.567-2.887-4.717-1.526-1.245-3.389-1.942-5.537-2.072a150.699 150.699 0 0 0-9.527-.262c-3.393-.008-6.508.078-9.535.262-2.148.13-4.01.827-5.537 2.071-1.41 1.15-2.382 2.738-2.887 4.718-.501 1.963-.53 4.07-.558 6.109a484.901 484.901 0 0 0-.05 5.406c.005 1.91.028 3.801.05 5.398.028 2.038.057 4.146.558 6.109.505 1.98 1.476 3.567 2.887 4.717 1.526 1.244 3.389 1.942 5.537 2.072 3.027.184 6.143.27 9.527.262a149.98 149.98 0 0 0 9.535-.262c2.148-.13 4.01-.828 5.537-2.072 1.016-.829 1.81-1.892 2.36-3.161a1.719 1.719 0 0 1 3.154 1.366c-.77 1.779-1.894 3.28-3.342 4.46-2.066 1.684-4.66 2.666-7.5 2.838-2.969.181-6.017.269-9.306.269zm10.223-22c0-5.923-4.82-10.742-10.743-10.742S11.17 16.077 11.17 22c0 5.923 4.82 10.742 10.743 10.742S32.656 27.923 32.656 22zm-3.438 0c0 4.028-3.277 7.305-7.305 7.305S14.609 26.028 14.609 22s3.277-7.305 7.305-7.305 7.305 3.277 7.305 7.305zm4.64-14.18a2.578 2.578 0 1 0 0 5.157 2.578 2.578 0 0 0 0-5.157z"></path>
		</symbol>
	
		<symbol id="pgn-prev" viewBox="0 0 5 7">
			<path d="M.647 3.153l3.01-3.01a.49.49 0 1 1 .694.694L1.687 3.5l2.664 2.663a.49.49 0 0 1-.694.693l-3.01-3.01a.488.488 0 0 1 0-.693z"></path>
		</symbol>
	
		<symbol id="s-fb" viewBox="0 0 96.124 96.123">
			<path d="M72.089.02L59.624 0C45.62 0 36.57 9.285 36.57 23.656v10.907H24.037a1.96 1.96 0 0 0-1.96 1.961v15.803a1.96 1.96 0 0 0 1.96 1.96H36.57v39.876a1.96 1.96 0 0 0 1.96 1.96h16.352a1.96 1.96 0 0 0 1.96-1.96V54.287h14.654a1.96 1.96 0 0 0 1.96-1.96l.006-15.803a1.963 1.963 0 0 0-1.961-1.961H56.842v-9.246c0-4.444 1.059-6.7 6.848-6.7l8.397-.003a1.96 1.96 0 0 0 1.959-1.96V1.98A1.96 1.96 0 0 0 72.089.02z"></path>
		</symbol>
	
		<symbol id="s-insta" viewBox="0 0 60 60">
			<title>Монтажная область 2 копия 10</title><path d="M40.72 6.08H19.28a13.22 13.22 0 0 0-13.2 13.2v21.44a13.21 13.21 0 0 0 13.2 13.2h21.44a13.22 13.22 0 0 0 13.2-13.2V19.28a13.22 13.22 0 0 0-13.2-13.2zm9 34.64a9 9 0 0 1-9 9H19.28a9 9 0 0 1-9-9V19.28a9 9 0 0 1 9-9h21.44a9 9 0 0 1 9 9zm0 0"></path><path d="M30 17.68A12.33 12.33 0 1 0 42.33 30 12.33 12.33 0 0 0 30 17.68zm0 20.4A8.08 8.08 0 1 1 38.08 30 8.08 8.08 0 0 1 30 38.08zm0 0M42.84 14.08A3.11 3.11 0 1 0 45 15a3.13 3.13 0 0 0-2.2-.91zm0 0"></path>
		</symbol>
	
		<symbol id="s-ok" viewBox="0 0 60 60">
			<title>Монтажная область 2 копия 12</title><path d="M27.46 40.56c-4-.42-7.62-1.41-10.71-3.82a12.69 12.69 0 0 1-1.13-.93 3 3 0 0 1-.42-4.32 3 3 0 0 1 4.05-.91 6.09 6.09 0 0 1 .89.52 17.55 17.55 0 0 0 19.46.18 5.3 5.3 0 0 1 1.9-1 3 3 0 0 1 3.41 1.36 2.9 2.9 0 0 1-.21 3.8 15.83 15.83 0 0 1-5.7 3.68 26.66 26.66 0 0 1-6.43 1.43c.33.36.49.54.7.75 3 3 6 6 8.92 9a3 3 0 0 1 .67 3.48 3.53 3.53 0 0 1-3.31 2.06 3.25 3.25 0 0 1-2.09-1.07c-2.2-2.3-4.46-4.52-6.69-6.77-.64-.67-.95-.54-1.51 0-2.26 2.33-4.56 4.62-6.87 6.89a2.88 2.88 0 0 1-3.47.63 3.52 3.52 0 0 1-2-3.24A3.19 3.19 0 0 1 18 50.1l8.82-8.83c.19-.2.37-.41.66-.71zm0 0" fill-rule="evenodd"></path><path d="M29.9 30.32a13.08 13.08 0 1 1 13.15-12.91A13.09 13.09 0 0 1 29.9 30.32zm6.49-13.09A6.4 6.4 0 1 0 30 23.64a6.36 6.36 0 0 0 6.36-6.41zm0 0" fill-rule="evenodd"></path>
		</symbol>
	
		<symbol id="s-tw" viewBox="0 0 612 612">
			<path d="M612 116.258a250.714 250.714 0 0 1-72.088 19.772c25.929-15.527 45.777-40.155 55.184-69.411-24.322 14.379-51.169 24.82-79.775 30.48-22.907-24.437-55.49-39.658-91.63-39.658-69.334 0-125.551 56.217-125.551 125.513 0 9.828 1.109 19.427 3.251 28.606-104.326-5.24-196.835-55.223-258.75-131.174-10.823 18.51-16.98 40.078-16.98 63.101 0 43.559 22.181 81.993 55.835 104.479a125.556 125.556 0 0 1-56.867-15.756v1.568c0 60.806 43.291 111.554 100.693 123.104-10.517 2.83-21.607 4.398-33.08 4.398-8.107 0-15.947-.803-23.634-2.333 15.985 49.907 62.336 86.199 117.253 87.194-42.947 33.654-97.099 53.655-155.916 53.655-10.134 0-20.116-.612-29.944-1.721 55.567 35.681 121.536 56.485 192.438 56.485 230.948 0 357.188-191.291 357.188-357.188l-.421-16.253c24.666-17.593 46.005-39.697 62.794-64.861z"></path>
		</symbol>
	
		<symbol id="s-vk" viewBox="0 0 60 60">
			<title>Монтажная область 2 копия 11</title><path d="M51 34.38a78.73 78.73 0 0 1 5.69 5.72 16.59 16.59 0 0 1 2 2.94c.78 1.52.07 3.19-1.29 3.28h-8.46a6.53 6.53 0 0 1-5.39-2.19c-1.18-1.2-2.26-2.47-3.39-3.7a8.18 8.18 0 0 0-1.52-1.36 1.77 1.77 0 0 0-2.82.69 8.82 8.82 0 0 0-.89 4c-.09 2-.7 2.52-2.7 2.61a21.64 21.64 0 0 1-12.11-2.61A26.79 26.79 0 0 1 12 36.08 102.21 102.21 0 0 1 1.24 17c-.68-1.51-.19-2.32 1.48-2.35q4.14-.07 8.29 0a2.44 2.44 0 0 1 2.3 1.72 51.49 51.49 0 0 0 5.61 10.41 8.92 8.92 0 0 0 2.13 2.33 1.29 1.29 0 0 0 2.19-.64 7.16 7.16 0 0 0 .48-2.19 32.64 32.64 0 0 0-.13-7.65 3.19 3.19 0 0 0-2.72-2.92c-.81-.15-.69-.45-.3-.91a3 3 0 0 1 2.6-1.3h9.57c1.51.3 1.84 1 2 2.49v10.59c0 .59.3 2.33 1.35 2.72.85.27 1.41-.4 1.91-.94a32.59 32.59 0 0 0 5.39-8.28c.65-1.31 1.21-2.67 1.75-4a2 2 0 0 1 2.16-1.48h9.21a5.42 5.42 0 0 1 .81.05c1.56.27 2 .94 1.5 2.45a22.74 22.74 0 0 1-3.66 6.35c-1.54 2.12-3.18 4.18-4.7 6.31-1.4 2-1.29 2.94.45 4.64zm0 0" fill-rule="evenodd"></path>
		</symbol>
	
		<symbol id="scroll" viewBox="0 0 1512 1480">
			<g clip-path="url(#a)" fill="#353634"><path d="M887.323 724.254c0-84.335-68.612-152.948-152.948-152.948-84.336 0-152.948 68.613-152.948 152.948 0 84.336 68.612 152.949 152.948 152.949 84.336 0 152.948-68.613 152.948-152.949zm-229.422 0c0-42.168 34.306-76.474 76.474-76.474 42.168 0 76.474 34.306 76.474 76.474 0 42.168-34.306 76.474-76.474 76.474-42.168 0-76.474-34.306-76.474-76.474zM766.192 205.962a38.245 38.245 0 0 0-31.816-17.026 38.245 38.245 0 0 0-31.816 17.026L549.612 435.384a38.239 38.239 0 1 0 31.816 59.449h305.897a38.237 38.237 0 0 0 31.815-59.446L766.192 205.962zM652.875 418.359l81.501-122.252 81.501 122.252H652.875zM887.325 953.679H581.428a38.236 38.236 0 0 0-33.712 20.194 38.248 38.248 0 0 0 1.896 39.257l152.948 229.42a38.237 38.237 0 0 0 63.632 0l152.948-229.42a38.24 38.24 0 1 0-31.815-59.451zM734.376 1152.41l-81.501-122.26h163.002l-81.501 122.26z"></path></g><path d="M740 0C330.968 0 0 330.997 0 740c0 409.03 330.997 740 740 740 409.03 0 740-331 740-740 0-409.032-331-740-740-740zm0 1364.38c-345.12 0-624.375-279.28-624.375-624.38 0-345.12 279.278-624.375 624.375-624.375 345.12 0 624.38 279.278 624.38 624.375 0 345.12-279.28 624.38-624.38 624.38z" fill="#353634"></path><defs><clipPath id="a"><path fill="#fff" d="M31.489 0h1480v1480h-1480z"></path></clipPath></defs>
		</symbol>
	
		<symbol id="searcher" viewBox="0 0 20 20">
			<path d="M14.715 14.715l3.947 3.947m-1.606-9.634A8.028 8.028 0 1 1 1 9.028a8.028 8.028 0 0 1 16.056 0z" fill="transparent"></path>
		</symbol>
	
</svg>
