<svg width="27" height="26" viewBox="0 0 27 26" fill="none" xmlns="http://www.w3.org/2000/svg">
<path d="M7.24654 14.04H8.26471V19.5508H9.22797V14.04H10.2651V13.1375H7.24654V14.04Z" fill="white"/>
<path d="M15.3913 14.7137C15.0729 14.7137 14.7757 14.8877 14.4964 15.2319V13.1372H13.6306V19.5508H14.4964V19.0878C14.7862 19.4454 15.0831 19.6167 15.3913 19.6167C15.7358 19.6167 15.9676 19.4354 16.0832 19.0797C16.1412 18.8771 16.1709 18.5589 16.1709 18.1167V16.2138C16.1709 15.7613 16.1412 15.4455 16.0832 15.2534C15.9678 14.895 15.7356 14.7137 15.3913 14.7137ZM15.3046 18.1845C15.3046 18.6164 15.178 18.8293 14.9278 18.8293C14.7857 18.8293 14.6409 18.7612 14.4961 18.6162V15.7038C14.6409 15.5606 14.7857 15.4928 14.9278 15.4928C15.1777 15.4928 15.3046 15.714 15.3046 16.145V18.1845Z" fill="white"/>
<path d="M12.015 18.424C11.8229 18.6954 11.6413 18.8292 11.4674 18.8292C11.3518 18.8292 11.2858 18.7611 11.2648 18.6266C11.2569 18.5987 11.2569 18.4931 11.2569 18.2903V14.772H10.3909V18.5501C10.3909 18.8878 10.4201 19.1158 10.4673 19.2609C10.5543 19.5031 10.7467 19.6167 11.0252 19.6167C11.3439 19.6167 11.6708 19.4243 12.015 19.0297V19.551H12.8815V14.772H12.015V18.424Z" fill="white"/>
<path d="M12.7583 10.357C13.0402 10.357 13.1755 10.1334 13.1755 9.6867V7.65534C13.1755 7.20839 13.0402 6.98584 12.7583 6.98584C12.4761 6.98584 12.3405 7.20866 12.3405 7.65534V9.6867C12.3405 10.1336 12.4761 10.357 12.7583 10.357Z" fill="white"/>
<path d="M13.3422 0.25C6.24961 0.25 0.5 5.99961 0.5 13.0922C0.5 20.1847 6.24961 25.9343 13.3422 25.9343C20.4347 25.9343 26.1843 20.1847 26.1843 13.0922C26.1843 5.99961 20.4347 0.25 13.3422 0.25ZM14.7705 6.25658H15.6431V9.81218C15.6431 10.0174 15.6431 10.1238 15.6536 10.1525C15.6728 10.288 15.7416 10.3574 15.8588 10.3574C16.0338 10.3574 16.2175 10.2218 16.4117 9.94777V6.25658H17.2866V11.0858H16.4117V10.5592C16.0632 10.9586 15.7311 11.1522 15.4119 11.1522C15.1302 11.1522 14.9358 11.0379 14.848 10.7936C14.7997 10.6472 14.7705 10.4163 14.7705 10.0755V6.25658ZM11.4656 7.83127C11.4656 7.31496 11.5533 6.93764 11.7394 6.69354C11.9813 6.36326 12.3221 6.19825 12.7583 6.19825C13.1966 6.19825 13.5371 6.36326 13.7791 6.69354C13.9625 6.93738 14.0503 7.31496 14.0503 7.83127V9.52237C14.0503 10.0358 13.9625 10.4165 13.7791 10.658C13.5371 10.9875 13.1966 11.1522 12.7583 11.1522C12.3221 11.1522 11.9813 10.9875 11.7394 10.658C11.5533 10.4165 11.4656 10.0355 11.4656 9.52237V7.83127ZM9.12546 4.60543L9.81441 7.15021L10.4763 4.60543H11.4577L10.2903 8.46136V11.086H9.32016V8.46136C9.23214 7.99628 9.03796 7.31496 8.7266 6.41108C8.52218 5.80964 8.30908 5.20635 8.10466 4.60543H9.12546ZM20.2555 19.9727C20.08 20.7344 19.457 21.2967 18.7068 21.3805C16.9298 21.5789 15.1323 21.5799 13.3414 21.5789C11.5512 21.5799 9.75266 21.5789 7.97617 21.3805C7.22601 21.2967 6.60275 20.7347 6.42776 19.9727C6.17788 18.8877 6.17788 17.703 6.17788 16.5857C6.17788 15.4685 6.18103 14.284 6.43065 13.1988C6.6059 12.4368 7.22863 11.8745 7.9788 11.791C9.75555 11.5926 11.5538 11.5916 13.3445 11.5926C15.1347 11.5916 16.933 11.5926 18.7097 11.791C19.4599 11.8748 20.0831 12.4368 20.2589 13.1988C20.508 14.284 20.5064 15.4685 20.5064 16.5857C20.5064 17.703 20.5054 18.8877 20.2555 19.9727Z" fill="white"/>
<path d="M18.1493 14.7136C17.7063 14.7136 17.3624 14.8763 17.1122 15.2034C16.9286 15.4451 16.8447 15.8188 16.8447 16.3293V18.0033C16.8447 18.5112 16.9385 18.8875 17.123 19.1269C17.3729 19.4532 17.7179 19.6164 18.1709 19.6164C18.6231 19.6164 18.978 19.4453 19.2177 19.0982C19.3228 18.9448 19.3911 18.7711 19.42 18.5793C19.4281 18.4926 19.4384 18.3005 19.4384 18.0212V17.8953H18.5553C18.5553 18.2422 18.544 18.4348 18.5364 18.4818C18.487 18.7133 18.3624 18.8289 18.1493 18.8289C17.8519 18.8289 17.7063 18.6082 17.7063 18.1662V17.3186H19.4384V16.3288C19.4384 15.8182 19.352 15.4446 19.1704 15.2029C18.9284 14.8765 18.5839 14.7136 18.1493 14.7136ZM18.5729 16.5981H17.7068V16.1559C17.7068 15.7139 17.8521 15.493 18.1414 15.493C18.4278 15.493 18.5729 15.7142 18.5729 16.1559V16.5981Z" fill="white"/>
</svg>
