<svg width="26" height="26" viewBox="0 0 26 26" fill="none" xmlns="http://www.w3.org/2000/svg">
<path d="M12.8422 0.25C5.74987 0.25 0 5.99961 0 13.0922C0 20.1847 5.74987 25.9343 12.8422 25.9343C19.9344 25.9343 25.6843 20.1847 25.6843 13.0922C25.6843 5.99961 19.9344 0.25 12.8422 0.25ZM19.3564 14.4811C19.9549 15.0657 20.5882 15.6159 21.1255 16.261C21.3636 16.5463 21.588 16.8414 21.7588 17.1733C22.0026 17.6465 21.7824 18.1654 21.3588 18.1935L18.7279 18.193C18.0484 18.2493 17.5076 17.9752 17.0518 17.5106C16.6878 17.1404 16.3502 16.745 15.9997 16.3621C15.8565 16.205 15.7057 16.0571 15.5259 15.9407C15.1673 15.7074 14.8556 15.7788 14.6502 16.1535C14.4408 16.5348 14.3929 16.9573 14.373 17.3816C14.3443 18.002 14.1572 18.1641 13.5348 18.1933C12.2047 18.2556 10.9427 18.0538 9.76976 17.3832C8.73503 16.7917 7.93415 15.957 7.23628 15.0118C5.87731 13.1694 4.83653 11.1472 3.90139 9.06701C3.69092 8.59852 3.8449 8.34785 4.36174 8.33813C5.22042 8.32157 6.0791 8.32368 6.93779 8.33734C7.28725 8.34286 7.51848 8.54282 7.65274 8.87257C8.11677 10.0142 8.68563 11.1005 9.39849 12.1079C9.58846 12.3761 9.78237 12.6436 10.0585 12.8331C10.3633 13.0422 10.5956 12.9731 10.7393 12.6329C10.8313 12.4166 10.871 12.1854 10.8909 11.9536C10.9593 11.1599 10.9674 10.3663 10.8492 9.57571C10.7756 9.08094 10.4973 8.76143 10.0041 8.66789C9.75294 8.62033 9.78973 8.52731 9.91191 8.38385C10.124 8.13581 10.3226 7.98236 10.7196 7.98236L13.6922 7.98183C14.1607 8.0738 14.2658 8.284 14.3294 8.75591L14.332 12.0593C14.3265 12.2419 14.4237 12.7832 14.7516 12.9027C15.0144 12.9894 15.1878 12.7787 15.3449 12.6124C16.0578 11.8559 16.5657 10.9631 17.0205 10.0389C17.2212 9.63141 17.3944 9.20969 17.5626 8.78718C17.6876 8.47476 17.8821 8.32105 18.2347 8.3263L21.0971 8.32972C21.1815 8.32972 21.2671 8.33051 21.3507 8.34496C21.8331 8.42747 21.9653 8.63504 21.816 9.10564C21.5811 9.84503 21.1247 10.4609 20.6786 11.0784C20.2003 11.7395 19.6903 12.3775 19.2169 13.0414C18.7817 13.6484 18.8162 13.954 19.3564 14.4811Z" fill="white"/>
</svg>
