<svg width="26" height="26" viewBox="0 0 26 26" fill="none" xmlns="http://www.w3.org/2000/svg">
<path d="M15 13C15 14.1046 14.1046 15 13 15C11.8954 15 11 14.1046 11 13C11 11.8954 11.8954 11 13 11C14.1046 11 15 11.8954 15 13Z" fill="white"/>
<path d="M18.7054 8.68361C18.5881 8.36583 18.401 8.0782 18.1579 7.8421C17.9218 7.599 17.6344 7.41191 17.3164 7.29464C17.0585 7.19448 16.6711 7.07526 15.9576 7.04279C15.1857 7.00758 14.9542 7 13.0001 7C11.0458 7 10.8143 7.00739 10.0426 7.04259C9.32909 7.07526 8.94149 7.19448 8.68381 7.29464C8.36583 7.41191 8.0782 7.599 7.84229 7.8421C7.59919 8.0782 7.4121 8.36564 7.29464 8.68361C7.19448 8.94149 7.07526 9.32909 7.04279 10.0426C7.00758 10.8143 7 11.0458 7 13.0001C7 14.9542 7.00758 15.1857 7.04279 15.9576C7.07526 16.6711 7.19448 17.0585 7.29464 17.3164C7.4121 17.6344 7.599 17.9218 7.8421 18.1579C8.0782 18.401 8.36564 18.5881 8.68361 18.7054C8.94149 18.8057 9.32909 18.9249 10.0426 18.9574C10.8143 18.9926 11.0456 19 12.9999 19C14.9544 19 15.1859 18.9926 15.9574 18.9574C16.6709 18.9249 17.0585 18.8057 17.3164 18.7054C17.9547 18.4592 18.4592 17.9547 18.7054 17.3164C18.8055 17.0585 18.9247 16.6711 18.9574 15.9576C18.9926 15.1857 19 14.9542 19 13.0001C19 11.0458 18.9926 10.8143 18.9574 10.0426C18.9249 9.32909 18.8057 8.94149 18.7054 8.68361ZM13.0001 16.758C10.9244 16.758 9.24177 15.0756 9.24177 12.9999C9.24177 10.9242 10.9244 9.24177 13.0001 9.24177C15.0756 9.24177 16.7582 10.9242 16.7582 12.9999C16.7582 15.0756 15.0756 16.758 13.0001 16.758ZM16.9068 9.97146C16.4218 9.97146 16.0285 9.57822 16.0285 9.09319C16.0285 8.60816 16.4218 8.21492 16.9068 8.21492C17.3918 8.21492 17.7851 8.60816 17.7851 9.09319C17.7849 9.57822 17.3918 9.97146 16.9068 9.97146Z" fill="white"/>
<path d="M13 0C5.8214 0 0 5.8214 0 13C0 20.1786 5.8214 26 13 26C20.1786 26 26 20.1786 26 13C26 5.8214 20.1786 0 13 0ZM20.4198 16.0776C20.3837 16.8723 20.2574 17.4148 20.0729 17.8897C19.6851 18.8924 18.8924 19.6851 17.8897 20.0729C17.415 20.2574 16.8723 20.3835 16.0778 20.4198C15.2818 20.4561 15.0275 20.4648 13.0002 20.4648C10.9727 20.4648 10.7186 20.4561 9.92238 20.4198C9.12793 20.3835 8.58521 20.2574 8.11052 20.0729C7.61223 19.8854 7.16115 19.5916 6.78822 19.2118C6.40855 18.8391 6.11478 18.3878 5.92732 17.8897C5.74284 17.415 5.61649 16.8723 5.58038 16.0778C5.54369 15.2816 5.53516 15.0273 5.53516 13C5.53516 10.9727 5.54369 10.7184 5.58018 9.92238C5.61629 9.12773 5.74245 8.58521 5.92693 8.11032C6.11438 7.61223 6.40836 7.16095 6.78822 6.78822C7.16095 6.40836 7.61223 6.11458 8.11032 5.92712C8.58521 5.74265 9.12773 5.61649 9.92238 5.58018C10.7184 5.54388 10.9727 5.53516 13 5.53516C15.0273 5.53516 15.2816 5.54388 16.0776 5.58038C16.8723 5.61649 17.4148 5.74265 17.8897 5.92693C18.3878 6.11438 18.8391 6.40836 19.212 6.78822C19.5916 7.16115 19.8856 7.61223 20.0729 8.11032C20.2576 8.58521 20.3837 9.12773 20.42 9.92238C20.4563 10.7184 20.4648 10.9727 20.4648 13C20.4648 15.0273 20.4563 15.2816 20.4198 16.0776Z" fill="white"/>
</svg>
