<svg width="27" height="26" viewBox="0 0 27 26" fill="none" xmlns="http://www.w3.org/2000/svg">
<path d="M13.5922 0.25C6.49961 0.25 0.75 5.99961 0.75 13.0922C0.75 20.1847 6.49961 25.9343 13.5922 25.9343C20.6847 25.9343 26.4343 20.1847 26.4343 13.0922C26.4343 5.99961 20.6847 0.25 13.5922 0.25ZM18.4915 6.78997L16.7153 6.79076C15.3224 6.79076 15.0531 7.45264 15.0531 8.42379V10.5652H18.3746L18.373 13.9193H15.0533V22.5266H11.5889V13.9193H8.69282V10.5652H11.5889V8.09166C11.5889 5.22106 13.3428 3.65767 15.9034 3.65767L18.4918 3.66161V6.78997H18.4915Z" fill="white"/>
</svg>
