<svg width="54" height="47" viewBox="0 0 54 47" fill="none" xmlns="http://www.w3.org/2000/svg">
<path d="M51.3739 15.3931L27.0007 0L2.62594 15.3939C0.13589 16.8548 -0.738346 20.0729 0.678888 22.5848C1.38545 23.8365 2.54066 24.7342 3.93235 25.1124C4.40119 25.2395 4.87662 25.3026 5.34917 25.3026C6.1958 25.3026 7.03131 25.098 7.79802 24.7014V47H46.2014V24.7027C47.3961 25.3203 48.7582 25.4663 50.0658 25.1115C51.4571 24.7342 52.6123 23.8373 53.3193 22.5861C54.739 20.0737 53.8656 16.8548 51.3739 15.3931ZM31.2104 43.8499H22.7894V30.2215H31.2104V43.8499ZM34.3753 43.8499V27.071H19.6245V43.8495H10.9629V22.6964L27.0007 12.4038L43.0369 22.6956V43.8499H34.3753ZM50.5606 21.042C50.2726 21.5522 49.8009 21.918 49.2336 22.0722C48.6762 22.2235 48.0949 22.1518 47.5922 21.8708L27.0007 8.65581L6.40715 21.8717C5.90453 22.153 5.32321 22.2243 4.76538 22.073C4.19767 21.9188 3.72635 21.5526 3.43838 21.042C2.85789 20.013 3.2192 18.6937 4.24463 18.1011L4.27141 18.0859L27.0007 3.73078L49.702 18.0683L49.7552 18.1003C50.781 18.6933 51.1423 20.0126 50.5606 21.042Z" />
</svg>
