<svg width="44" height="44" viewBox="0 0 44 44" fill="none" xmlns="http://www.w3.org/2000/svg">
<path d="M22.4339 44C22.2882 44 22.1425 44 21.9958 43.9993C18.5468 44.0077 15.3599 43.9201 12.2607 43.7314C9.41924 43.5586 6.82558 42.5767 4.75964 40.8921C2.76622 39.2667 1.40493 37.0689 0.713711 34.3605C0.112126 32.0026 0.0802338 29.688 0.0496845 27.4493C0.0275279 25.843 0.00469989 23.9396 0 22.004C0.00469989 20.0603 0.0275279 18.1569 0.0496845 16.5506C0.0802338 14.3122 0.112126 11.9976 0.713711 9.63934C1.40493 6.93096 2.76622 4.73317 4.75964 3.10773C6.82558 1.42322 9.41924 0.441315 12.261 0.268432C15.3602 0.0801075 18.5478 -0.00784441 22.0042 0.000547949C25.4542 -0.00683733 28.6401 0.0801075 31.7393 0.268432C34.5808 0.441315 37.1744 1.42322 39.2404 3.10773C41.2341 4.73317 42.5951 6.93096 43.2863 9.63934C43.8879 11.9973 43.9198 14.3122 43.9503 16.5506C43.9725 18.1569 43.9956 20.0603 44 21.9959C43.9956 23.9396 43.9725 25.843 43.9503 27.4493C43.9376 28.3986 43.1533 29.1573 42.2083 29.1445C41.259 29.1314 40.5003 28.3513 40.513 27.4023C40.5348 25.8054 40.558 23.9144 40.5624 21.9959C40.558 20.0855 40.5348 18.1945 40.513 16.5976C40.4852 14.5596 40.4563 12.4521 39.9554 10.4893C39.4502 8.50939 38.4786 6.92223 37.068 5.7718C35.5422 4.52739 33.6791 3.83015 31.5305 3.69956C28.5041 3.5156 25.3888 3.43067 22.0042 3.43772C18.6115 3.42967 15.4959 3.5156 12.4695 3.69956C10.321 3.83015 8.45812 4.52739 6.932 5.77147C5.52136 6.92189 4.54983 8.50906 4.04459 10.4893C3.54371 12.4521 3.51484 14.5596 3.48698 16.5976C3.46516 18.1945 3.44233 20.0855 3.43763 22.004C3.44233 23.9144 3.46516 25.8054 3.48698 27.4023C3.51484 29.4403 3.54371 31.5478 4.04459 33.5106C4.54983 35.4905 5.52136 37.0776 6.932 38.2281C8.45812 39.4725 10.321 40.1697 12.4695 40.3003C15.4959 40.4843 18.6122 40.5702 21.9961 40.5618C25.3891 40.5699 28.5041 40.4843 31.5305 40.3003C33.6791 40.1697 35.5419 39.4725 37.068 38.2281C38.0842 37.3992 38.8781 36.3358 39.4277 35.0668C39.805 34.196 40.8168 33.7956 41.688 34.1729C42.5592 34.5502 42.9593 35.562 42.5823 36.4331C41.8119 38.212 40.6876 39.7122 39.2404 40.8921C37.1744 42.577 34.5808 43.5586 31.7393 43.7314C28.7714 43.912 25.7225 44 22.4339 44ZM32.6565 21.9999C32.6565 16.0766 27.8374 11.2577 21.9139 11.2577C15.9907 11.2577 11.1713 16.0766 11.1713 21.9999C11.1713 27.9233 15.9907 32.7422 21.9139 32.7422C27.8374 32.7422 32.6565 27.9233 32.6565 21.9999ZM29.2189 21.9999C29.2189 26.0276 25.942 29.3046 21.9139 29.3046C17.8861 29.3046 14.6089 26.0276 14.6089 21.9999C14.6089 17.9723 17.8861 14.6952 21.9139 14.6952C25.942 14.6952 29.2189 17.9723 29.2189 21.9999ZM33.8597 7.82021C32.4359 7.82021 31.2814 8.97433 31.2814 10.3983C31.2814 11.8224 32.4359 12.9765 33.8597 12.9765C35.2837 12.9765 36.4379 11.8224 36.4379 10.3983C36.4379 8.97433 35.2837 7.82021 33.8597 7.82021Z" />
</svg>
