<svg width="47" height="47" viewBox="0 0 47 47" fill="none" xmlns="http://www.w3.org/2000/svg">
<path d="M23.5 0C10.5105 0 0 10.5114 0 23.5C0 36.4895 10.5114 47 23.5 47C36.4895 47 47 36.4886 47 23.5C47 10.5105 36.4886 0 23.5 0ZM23.5 43.3281C12.5401 43.3281 3.67188 34.4592 3.67188 23.5C3.67188 12.5401 12.5408 3.67188 23.5 3.67188C34.4599 3.67188 43.3281 12.5408 43.3281 23.5C43.3281 34.4599 34.4592 43.3281 23.5 43.3281Z" />
<path d="M23.5 11.8305C22.486 11.8305 21.6641 12.6525 21.6641 13.6665V25.4893C21.6641 26.5032 22.486 27.3252 23.5 27.3252C24.514 27.3252 25.3359 26.5032 25.3359 25.4893V13.6665C25.3359 12.6525 24.514 11.8305 23.5 11.8305Z" />
<path d="M23.5 34.5303C24.8688 34.5303 25.9785 33.4206 25.9785 32.0518C25.9785 30.6829 24.8688 29.5733 23.5 29.5733C22.1312 29.5733 21.0215 30.6829 21.0215 32.0518C21.0215 33.4206 22.1312 34.5303 23.5 34.5303Z" />
</svg>
