<svg width="1512" height="1480" viewBox="0 0 1512 1480" fill="none" xmlns="http://www.w3.org/2000/svg">
<g clip-path="url(#clip0)">
<path d="M887.323 724.254C887.323 639.919 818.711 571.306 734.375 571.306C650.039 571.306 581.427 639.919 581.427 724.254C581.427 808.59 650.039 877.203 734.375 877.203C818.711 877.203 887.323 808.59 887.323 724.254ZM657.901 724.254C657.901 682.086 692.207 647.78 734.375 647.78C776.543 647.78 810.849 682.086 810.849 724.254C810.849 766.422 776.543 800.728 734.375 800.728C692.207 800.728 657.901 766.422 657.901 724.254Z" fill="#353634"/>
<path d="M766.192 205.962C759.1 195.327 747.16 188.936 734.376 188.936C721.592 188.936 709.652 195.327 702.56 205.962L549.612 435.384C541.791 447.118 541.062 462.204 547.716 474.636C554.369 487.068 567.326 494.833 581.428 494.833H887.325C901.426 494.833 914.384 487.071 921.037 474.639C927.69 462.206 926.961 447.118 919.14 435.387L766.192 205.962ZM652.875 418.359L734.376 296.107L815.877 418.359H652.875Z" fill="#353634"/>
<path d="M887.325 953.679H581.428C567.326 953.679 554.369 961.441 547.716 973.873C541.062 986.306 541.791 1001.39 549.612 1013.13L702.56 1242.55C709.652 1253.19 721.592 1259.58 734.376 1259.58C747.16 1259.58 759.1 1253.19 766.192 1242.55L919.14 1013.13C926.961 1001.39 927.69 986.308 921.037 973.876C914.384 961.444 901.426 953.679 887.325 953.679ZM734.376 1152.41L652.875 1030.15H815.877L734.376 1152.41Z" fill="#353634"/>
</g>
<path d="M740 0C330.968 0 0 330.997 0 740C0 1149.03 330.997 1480 740 1480C1149.03 1480 1480 1149 1480 740C1480 330.968 1149 0 740 0ZM740 1364.38C394.88 1364.38 115.625 1085.1 115.625 740C115.625 394.88 394.903 115.625 740 115.625C1085.12 115.625 1364.38 394.903 1364.38 740C1364.38 1085.12 1085.1 1364.38 740 1364.38Z" fill="#353634"/>
<defs>
<clipPath id="clip0">
<rect x="31.4893" width="1480" height="1480" fill="white"/>
</clipPath>
</defs>
</svg>
